<svg width="56" height="55" viewBox="0 0 56 55" fill="none" xmlns="http://www.w3.org/2000/svg">
<path d="M7 34.375H32.6667L42 18.3333L30.3333 25.2083L25.6667 20.625H16.3333H7V34.375Z" fill="#222222"/>
<path d="M42 18.3333L30.3333 25.2083L25.6667 20.625H16.3333M42 18.3333L49 25.2083M42 18.3333L32.6667 34.375H7V20.625H16.3333M16.3333 20.625V9.16663M16.3333 9.16663H9.33333M16.3333 9.16663H23.3333" stroke="#222222" stroke-width="2" stroke-linejoin="round"/>
<path d="M7 48.125L11.1972 44.0028C12.5205 42.7031 13.1821 42.0533 14 42.0533C14.8179 42.0533 15.4795 42.7031 16.8028 44.0028L18.1972 45.3722C19.5205 46.6719 20.1821 47.3217 21 47.3217C21.8179 47.3217 22.4795 46.6719 23.8028 45.3722L25.0359 44.1612C26.1882 43.0294 26.7644 42.4636 27.4234 42.3745C27.7332 42.3326 28.0486 42.3639 28.3441 42.4659C28.9727 42.683 29.4262 43.3511 30.3333 44.6875V44.6875C31.2404 46.0239 31.694 46.692 32.3225 46.9091C32.6181 47.0111 32.9335 47.0424 33.2433 47.0005C33.9023 46.9114 34.4785 46.3456 35.6308 45.2138L36.8638 44.0028C38.1871 42.7031 38.8488 42.0533 39.6667 42.0533C40.4846 42.0533 41.1462 42.7031 42.4695 44.0028L46.6667 48.125" stroke="#222222" stroke-width="2" stroke-linejoin="round"/>
</svg>
