<svg width="28" height="46" viewBox="0 0 28 46" fill="none" xmlns="http://www.w3.org/2000/svg">
<path d="M13.5 27.65H3.46536C2.02314 27.65 1.30202 27.65 1.00854 27.1782C0.715061 26.7063 1.03384 26.0595 1.67139 24.7659L13.0515 1.67458C13.4262 0.914386 13.6135 0.534291 13.8067 0.579327C14 0.624364 14 1.04811 14 1.89561V17.85C14 18.0857 14 18.2036 14.0732 18.2768C14.1464 18.35 14.2643 18.35 14.5 18.35H24.5346C25.9769 18.35 26.698 18.35 26.9915 18.8218C27.2849 19.2936 26.9662 19.9405 26.3286 21.2341L14.9485 44.3254C14.5738 45.0856 14.3865 45.4657 14.1933 45.4207C14 45.3756 14 44.9519 14 44.1044V28.15C14 27.9143 14 27.7964 13.9268 27.7232C13.8536 27.65 13.7357 27.65 13.5 27.65Z" fill="#222222"/>
</svg>
