<svg width="30" height="23" viewBox="0 0 30 23" fill="none" xmlns="http://www.w3.org/2000/svg">
<path fill-rule="evenodd" clip-rule="evenodd" d="M30 21V9C30 4.02944 25.9706 0 21 0H9C4.02944 0 0 4.02944 0 9V21C0 22.1046 0.895431 23 2 23H28C29.1046 23 30 22.1046 30 21ZM20.5015 8.71847C20.9793 8.99546 21.1421 9.60734 20.8651 10.0851L18.648 13.9097C19.4624 14.4461 20 15.3688 20 16.4169V19.0169C20 19.0998 19.9328 19.1669 19.85 19.1669H10.15C10.0672 19.1669 10 19.0998 10 19.0169V16.4169C10 14.7601 11.3431 13.4169 13 13.4169H16.6219L19.1349 9.08208C19.4118 8.60427 20.0237 8.44148 20.5015 8.71847Z" fill="#222222"/>
</svg>
