<svg width="30" height="53" viewBox="0 0 30 53" fill="none" xmlns="http://www.w3.org/2000/svg">
<path fill-rule="evenodd" clip-rule="evenodd" d="M15 52.9217C23.2843 52.9217 30 44.371 30 33.8233C30 19.5484 18.7586 4.22571 15.739 0.367369C15.3557 -0.122457 14.6443 -0.122456 14.261 0.367371C11.2414 4.22572 0 19.5484 0 33.8233C0 44.371 6.71573 52.9217 15 52.9217ZM7.52133 37.9584C7.4984 37.6832 7.25673 37.4787 6.98154 37.5017C6.70635 37.5246 6.50185 37.7663 6.52478 38.0415C6.79973 41.3415 7.653 44.3934 8.95838 46.7458C10.2639 49.0984 11.9521 50.6264 13.7733 51.104C14.0404 51.174 14.3137 51.0143 14.3838 50.7472C14.4538 50.4801 14.2941 50.2067 14.027 50.1367C12.5658 49.7535 11.0632 48.478 9.83278 46.2606C8.6101 44.0572 7.78716 41.149 7.52133 37.9584Z" fill="#33363F"/>
</svg>
